<?xml version="1.0" standalone="no"?><!DOCTYPE svg PUBLIC "-//W3C//DTD SVG 1.1//EN" "http://www.w3.org/Graphics/SVG/1.1/DTD/svg11.dtd"><svg t="1569568120962" class="icon" viewBox="0 0 1024 1024" version="1.1" xmlns="http://www.w3.org/2000/svg" p-id="3447" xmlns:xlink="http://www.w3.org/1999/xlink" width="64" height="64"><defs><style type="text/css"></style></defs><path d="M595.451733 562.824533 474.961067 442.973867 684.945067 353.9712 595.451733 562.824533ZM355.1104 681.864533 444.625067 472.989867 565.137067 592.840533 355.1104 681.864533ZM677.6704 310.7072 421.1584 419.4432 311.825067 674.525867C302.971733 695.1552 307.089067 708.509867 312.059733 716.0832 317.9904 725.085867 328.145067 730.2272 339.921067 730.2272 346.811733 730.2272 354.385067 728.4992 362.4064 725.1072L618.9184 616.392533 728.2304 361.2672C737.083733 340.637867 732.987733 327.2832 727.995733 319.7312 718.587733 305.4592 699.387733 301.512533 677.6704 310.7072L677.6704 310.7072Z" p-id="3448" fill="#1296db"></path><path d="M533.333333 937.639093 533.333333 873.474963C533.333333 861.694498 523.797333 852.172132 512 852.172132 500.202667 852.172132 490.666667 861.694498 490.666667 873.474963L490.666667 937.639093C272 926.753346 96.576 751.154106 86.336 532.62966L149.333333 532.62966C161.130667 532.62966 170.666667 523.107294 170.666667 511.326827 170.666667 499.546362 161.130667 490.023996 149.333333 490.023996L86.485333 490.023996C98.005333 272.735115 272.896 98.520558 490.666667 87.677416L490.666667 149.178691C490.666667 160.959157 500.202667 170.481523 512 170.481523 523.797333 170.481523 533.333333 160.959157 533.333333 149.178691L533.333333 87.677416C751.104 98.520558 925.994667 272.735115 937.514667 490.023996L874.666667 490.023996C862.869333 490.023996 853.333333 499.546362 853.333333 511.326827 853.333333 523.107294 862.869333 532.62966 874.666667 532.62966L937.664 532.62966C927.424 751.154106 752 926.753346 533.333333 937.639093M981.333333 511.326827C981.333333 511.262918 981.290667 511.19901 981.290667 511.135102 980.48 255.565032 774.784 48.267178 519.616 44.198337 517.226667 43.282315 514.709333 42.664533 512 42.664533 509.290667 42.664533 506.773333 43.282315 504.384 44.198337 249.216 48.267178 43.52 255.565032 42.709333 511.135102 42.709333 511.19901 42.666667 511.262918 42.666667 511.326827 42.666667 511.390735 42.688 511.433342 42.688 511.475947 42.688 511.880702 42.666667 512.264151 42.666667 512.668907 42.666667 771.498308 252.8 981.3312 512 981.3312 771.2 981.3312 981.333333 771.498308 981.333333 512.668907 981.333333 512.264151 981.312 511.880702 981.312 511.475947 981.312 511.433342 981.333333 511.390735 981.333333 511.326827" p-id="3449" fill="#1296db"></path></svg>